<?xml version="1.0" standalone="no"?>
<!DOCTYPE svg PUBLIC "-//W3C//DTD SVG 20010904//EN"
 "http://www.w3.org/TR/2001/REC-SVG-20010904/DTD/svg10.dtd">
<svg version="1.0" xmlns="http://www.w3.org/2000/svg"
 width="1446.000000pt" height="1446.000000pt" viewBox="0 0 1446.000000 1446.000000"
 preserveAspectRatio="xMidYMid meet">
<metadata>
Created by potrace 1.16, written by Peter Selinger 2001-2019
</metadata>
<g transform="translate(0.000000,1446.000000) scale(0.100000,-0.100000)"
fill="#000000" stroke="none">
<path d="M6506 13143 c-2 -10 -19 -87 -37 -170 -18 -84 -36 -153 -39 -153 -4
0 -43 70 -86 155 -57 112 -83 153 -94 150 -8 -2 -285 -77 -615 -165 -330 -88
-608 -163 -619 -166 -18 -6 -18 -15 -11 -181 4 -101 3 -174 -2 -172 -5 2 -60
59 -122 127 -62 67 -115 122 -117 122 -14 0 -1127 -646 -1131 -656 -2 -7 18
-84 45 -171 28 -87 47 -159 42 -161 -4 -2 -72 38 -150 89 l-142 91 -182 -178
c-481 -474 -746 -740 -746 -746 0 -5 41 -71 91 -149 49 -78 88 -144 84 -147
-3 -3 -78 17 -168 45 -89 29 -162 51 -164 50 -11 -11 -653 -1133 -651 -1137 2
-4 58 -58 125 -119 68 -62 123 -115 123 -118 0 -3 -79 -3 -174 1 l-175 7 -10
-38 c-49 -185 -323 -1202 -327 -1215 -4 -13 28 -33 148 -93 166 -84 164 -83
157 -90 -4 -4 -321 -75 -335 -75 -2 0 -4 -297 -4 -659 0 -620 1 -660 18 -665
9 -3 86 -19 169 -37 84 -18 153 -36 153 -40 0 -3 -67 -41 -150 -83 -82 -43
-150 -82 -150 -89 0 -7 75 -292 166 -635 l168 -623 174 7 c110 5 173 4 171 -2
-2 -6 -59 -61 -126 -123 l-123 -113 26 -49 c16 -29 31 -46 38 -42 30 18 1513
1056 1524 1067 10 9 4 36 -28 131 -83 246 -150 552 -186 850 -21 180 -30 615
-15 785 134 1527 1087 2843 2501 3452 760 328 1626 414 2460 243 856 -175
1674 -653 2252 -1316 702 -807 1055 -1794 1025 -2864 -11 -371 -72 -734 -182
-1083 -20 -63 -35 -115 -33 -117 21 -19 1552 -1085 1559 -1085 31 0 -7 49
-116 149 -69 62 -125 116 -125 119 0 2 80 3 177 1 l176 -4 163 605 c90 333
166 616 169 630 5 23 -4 30 -149 105 -85 44 -152 83 -148 87 4 4 72 21 152 38
80 17 153 34 163 36 16 5 17 43 15 662 l-3 657 -162 35 c-89 19 -165 38 -168
42 -4 4 62 41 146 84 85 42 155 77 157 79 1 1 -70 272 -158 601 -89 329 -165
616 -171 637 -9 36 -11 37 -47 32 -89 -11 -314 -16 -311 -6 2 5 59 60 127 121
81 74 121 117 118 127 -8 20 -636 1106 -646 1116 -4 5 -81 -14 -170 -42 -90
-28 -165 -49 -168 -47 -2 3 34 65 81 138 47 73 88 140 91 148 4 10 -143 163
-456 477 l-463 462 -145 -94 c-95 -61 -146 -89 -148 -80 -2 7 17 78 41 157 25
79 47 151 49 160 2 14 -123 90 -561 343 -311 179 -567 325 -570 325 -3 0 -57
-57 -120 -126 -63 -69 -117 -122 -121 -117 -4 4 -3 82 2 172 5 90 7 165 5 167
-3 4 -974 266 -1210 327 l-58 15 -75 -151 c-42 -84 -78 -154 -81 -157 -9 -10
-20 25 -52 179 l-34 161 -658 0 c-618 0 -658 -1 -663 -17z"/>
<path d="M6885 11130 c-358 -31 -621 -83 -934 -185 -498 -162 -946 -414 -1356
-764 -165 -141 -433 -429 -583 -627 -349 -462 -609 -1060 -712 -1636 -82 -459
-78 -974 11 -1428 41 -208 139 -570 155 -570 3 0 64 41 135 91 96 67 128 95
125 107 -61 204 -108 405 -130 567 -21 144 -37 327 -31 334 3 3 283 -28 623
-67 339 -40 625 -73 634 -72 9 0 320 211 690 470 588 410 679 478 724 532 123
152 318 309 488 395 102 52 252 100 351 114 96 14 255 2 375 -28 100 -25 244
-87 337 -145 94 -59 237 -187 302 -271 28 -37 50 -56 69 -59 15 -2 347 -228
739 -501 l712 -497 573 69 c315 37 577 65 581 61 22 -19 -44 -468 -103 -694
-16 -65 -30 -125 -30 -134 1 -15 225 -182 254 -190 19 -4 107 323 145 538 71
403 75 849 11 1273 -186 1224 -960 2307 -2060 2880 -435 227 -884 364 -1380
422 -159 19 -572 27 -715 15z m82 -347 c-3 -21 -56 -465 -117 -988 -61 -522
-114 -956 -118 -963 -4 -8 -52 -29 -107 -48 -55 -18 -142 -54 -193 -79 -52
-25 -98 -42 -104 -39 -9 6 -1557 1221 -1568 1232 -8 7 105 105 228 198 406
307 890 532 1382 642 186 42 428 77 554 81 l49 1 -6 -37z m571 22 c195 -21
295 -38 487 -85 383 -94 746 -249 1078 -461 122 -78 342 -241 422 -313 44 -39
48 -46 35 -59 -28 -26 -1560 -1227 -1565 -1227 -4 0 -43 18 -89 40 -45 22
-131 57 -192 79 -88 31 -110 43 -117 62 -4 13 -57 447 -118 964 -60 517 -113
957 -116 978 -7 44 -22 42 175 22z m-2438 -1965 c337 -426 614 -781 617 -788
3 -7 -15 -55 -40 -105 -25 -51 -60 -135 -78 -187 -17 -52 -35 -99 -39 -103
-11 -12 -1983 -246 -1994 -236 -5 4 -2 76 8 169 57 566 251 1113 563 1590 117
178 326 444 344 438 4 -2 283 -352 619 -778z m4853 669 c119 -141 319 -442
411 -619 182 -351 297 -694 360 -1072 31 -181 51 -387 40 -397 -11 -10 -1983
224 -1994 236 -4 4 -20 46 -35 93 -15 47 -50 133 -78 192 l-49 107 172 218
c94 120 373 473 618 785 246 312 452 566 457 565 6 -2 50 -50 98 -108z"/>
<path d="M3625 5638 c-1485 -1039 -2706 -1893 -2714 -1897 -17 -10 29 -95 186
-348 l95 -152 107 88 c58 48 1236 1009 2616 2136 1381 1126 2514 2051 2520
2056 5 5 -16 9 -50 8 l-60 -1 -2700 -1890z"/>
<path d="M4069 5254 c-1355 -1252 -2471 -2282 -2479 -2290 -12 -12 164 -14
1235 -12 l1249 3 138 230 c76 127 145 238 153 248 14 16 49 17 474 17 253 0
462 -3 464 -7 3 -5 -35 -109 -84 -233 -49 -124 -92 -233 -95 -242 -5 -17 35
-18 750 -18 l755 0 6 42 c8 58 465 4502 465 4522 0 14 -31 16 -283 16 l-284 0
-2464 -2276z m2841 2214 c0 -7 -9 -32 -20 -55 l-19 -43 -71 0 c-43 0 -70 4
-70 11 0 6 12 30 26 55 l26 44 64 0 c45 0 64 -4 64 -12z m-101 -250 c0 -7 -19
-58 -42 -113 l-42 -100 -113 -3 c-61 -1 -112 0 -112 4 0 3 30 55 66 115 l65
109 90 0 c65 0 89 -3 88 -12z m-239 -605 c0 -5 -69 -179 -153 -388 l-152 -380
-219 -3 c-121 -1 -223 1 -228 6 -6 6 335 589 438 750 14 21 20 22 164 22 83 0
150 -3 150 -7z"/>
<path d="M7235 7488 c3 -24 106 -1033 230 -2243 124 -1210 227 -2221 231
-2247 l6 -48 754 0 c415 0 754 3 754 8 0 4 -42 113 -94 242 -52 129 -91 238
-87 243 4 4 216 6 471 5 l465 -3 145 -245 146 -245 1249 -3 1250 -2 -25 24
c-14 13 -1129 1043 -2478 2290 l-2454 2266 -285 0 -284 0 6 -42z m344 -58 c17
-28 31 -52 31 -55 0 -3 -34 -5 -75 -5 l-76 0 -19 46 c-11 25 -20 50 -20 55 0
5 29 9 64 9 l64 0 31 -50z m117 -208 c20 -13 136 -211 129 -222 -7 -11 -194
-14 -211 -2 -14 10 -95 213 -88 223 6 11 154 12 170 1z m597 -982 c125 -209
225 -385 222 -390 -7 -12 -424 -14 -441 -2 -13 8 -304 735 -304 758 0 11 26
14 148 14 l147 0 228 -380z"/>
<path d="M8321 7177 c3911 -3194 4895 -3997 4901 -3997 7 0 172 259 255 400
l50 85 -2760 1930 -2760 1930 -60 3 -60 3 434 -354z"/>
</g>
</svg>
